<svg xmlns="http://www.w3.org/2000/svg" xmlns:xlink="http://www.w3.org/1999/xlink" width="375" height="375" viewBox="0 0 475 475">
  <defs>
    <style>
      .cls-1 {
        fill: #13b6ff;
      }

      .cls-2 {
        fill: #03acf8;
      }

      .cls-3, .cls-4, .cls-5 {
        fill: #fff;
      }

      .cls-3 {
        font-size: 16px;
        font-family: Poppins-Regular, Poppins;
      }

      .cls-4 {
        font-size: 24px;
        font-family: Poppins-Bold, Poppins;
        font-weight: 700;
      }

      .cls-6 {
        filter: url(#bg);
      }
    </style>
    <filter id="bg" x="0" y="0" width="475" height="475" filterUnits="userSpaceOnUse">
      <feOffset input="SourceAlpha"/>
      <feGaussianBlur stdDeviation="17.5" result="blur"/>
      <feFlood flood-color="#13b6ff" flood-opacity="0.349"/>
      <feComposite operator="in" in2="blur"/>
      <feComposite in="SourceGraphic"/>
    </filter>
  </defs>
  <g id="Motion_Graphic" data-name="Motion Graphic" transform="translate(-796.5 -2802.5)">
    <g class="cls-6" transform="matrix(1, 0, 0, 1, 796.5, 2802.5)">
      <rect id="bg-2" data-name="bg" class="cls-1" width="370" height="370" transform="translate(52.5 52.5)"/>
    </g>
    <path id="Shape" class="cls-2" d="M849,3100.557s15.007-66.793,51.8-54.34,43.02,57.737,121.7,13.585,95.662-58.3,124.531-23.774,71.888-34.528,71.888-34.528v223.589H849Z"/>
    <text id="Lipsum_as_it_is_sometimes_known_is_dummy_text_used_in_laying_out_print_graphic_or_web_designs." data-name="Lipsum as it is sometimes known
is dummy text used in laying out print,
 graphic or web designs." class="cls-3" transform="translate(885 3070.84)"><tspan x="20.552" y="17">Lipsum as it is sometimes known</tspan><tspan x="21.632" y="41">is dummy text used in laying out </tspan><tspan x="131.024" y="65">print,</tspan></text>
    <text id="Motion_Graphic-2" data-name="Motion Graphic" class="cls-4" transform="translate(1036 3048)"><tspan x="-94.812" y="0">Motion Graphic</tspan></text>
    <path id="icon" class="cls-5" d="M1039.946,2998.994h-33.616v-1.12a3.365,3.365,0,0,1,3.362-3.362h26.892a3.366,3.366,0,0,1,3.362,3.362v1.119Zm-8.277-6.724h-17.061l1.494-4.482h14.073l1.494,4.481Zm18.362-6.722H996.246a2.244,2.244,0,0,1-2.241-2.242v-40.338a2.244,2.244,0,0,1,2.241-2.241H1020.9v4.482h-20.169a2.244,2.244,0,0,0-2.241,2.241v29.133a2.244,2.244,0,0,0,2.241,2.241h44.82a2.244,2.244,0,0,0,2.242-2.241v-8.963h4.482v15.686A2.244,2.244,0,0,1,1050.031,2985.549Zm-11.2-4.479v2.24h2.24v-2.24Zm-4.489,0v2.24h2.239v-2.24Zm-4.48,0v2.24h2.24v-2.24Zm15.688-4.486h-44.82v-29.133H1020.9v16.807a3.366,3.366,0,0,0,3.362,3.362h21.289v8.962Zm-4.478-4.484v2.24h2.24v-2.24Zm-38.1,0v2.24h35.86v-2.24Zm2.24-11.2v6.724h13.446v-11.206h-4.482v-6.722h-11.205v11.2Zm52.664,4.482h-33.616a1.122,1.122,0,0,1-1.121-1.121v-5.6h35.857v5.6A1.122,1.122,0,0,1,1057.874,2965.379Zm-30.254-4.479v2.24h26.89v-2.24Zm-11.2,4.479h-8.964V2960.9h6.723v-2.241h2.241v6.722Zm-4.485-6.729h-6.72v-6.72h6.72v6.719Zm47.065-2.236h-35.857v-21.29a1.122,1.122,0,0,1,1.121-1.12h33.616a1.122,1.122,0,0,1,1.12,1.12v21.289Zm-24.652-19.74h0v17.072l17.073-8.537-17.073-8.535Z"/>
  </g>
</svg>
