<svg xmlns="http://www.w3.org/2000/svg" xmlns:xlink="http://www.w3.org/1999/xlink" width="375" height="375" viewBox="0 0 475 475">
  <defs>
    <style>
      .cls-1 {
        fill: #49af46;
      }

      .cls-2 {
        fill: #49b846;
      }

      .cls-3, .cls-4, .cls-5 {
        fill: #fff;
      }

      .cls-3 {
        font-size: 16px;
        font-family: Poppins-Regular, Poppins;
      }

      .cls-4 {
        font-size: 24px;
        font-family: Poppins-Bold, Poppins;
        font-weight: 700;
      }

      .cls-6 {
        filter: url(#bg_green);
      }
    </style>
    <filter id="bg_green" x="0" y="0" width="475" height="475" filterUnits="userSpaceOnUse">
      <feOffset input="SourceAlpha"/>
      <feGaussianBlur stdDeviation="17.5" result="blur"/>
      <feFlood flood-color="#49af46" flood-opacity="0.349"/>
      <feComposite operator="in" in2="blur"/>
      <feComposite in="SourceGraphic"/>
    </filter>
  </defs>
  <g id="Seo_Optimize" data-name="Seo Optimize" transform="translate(-1196.5 -2802.5)">
    <g class="cls-6" transform="matrix(1, 0, 0, 1, 1196.5, 2802.5)">
      <rect id="bg_green-2" data-name="bg_green" class="cls-1" width="370" height="370" transform="translate(52.5 52.5)"/>
    </g>
    <path id="shape" class="cls-2" d="M1249.08,3100.557s15.007-66.793,51.8-54.34,43.02,57.737,121.7,13.585,95.662-58.3,124.531-23.774S1619,3001.5,1619,3001.5v223.589H1249.08Z"/>
    <text id="Lipsum_as_it_is_sometimes_known_is_dummy_text_used_in_laying_out_print_graphic_or_web_designs." data-name="Lipsum as it is sometimes known
is dummy text used in laying out print,
 graphic or web designs." class="cls-3" transform="translate(1283 3070.84)"><tspan x="20.552" y="17">Lipsum as it is sometimes known</tspan><tspan x="21.632" y="41">is dummy text used in laying out </tspan><tspan x="131.024" y="65">print,</tspan></text>
    <text id="SEO_Optimize-2" data-name="SEO Optimize" class="cls-4" transform="translate(1434 3048)"><tspan x="-81.432" y="0">SEO Optimize</tspan></text>
    <path id="icon" class="cls-5" d="M1403.9,2999a1.9,1.9,0,1,1,0-3.809h2.031v-21.2a1.9,1.9,0,0,1,1.9-1.9h7.618a1.9,1.9,0,0,1,1.9,1.9v21.2h3.809v-13.584a1.9,1.9,0,0,1,1.9-1.9h7.617a1.9,1.9,0,0,1,1.9,1.9v13.584h3.808v-28.817a1.9,1.9,0,0,1,1.9-1.9h7.618a1.9,1.9,0,0,1,1.9,1.9v28.817h3.809v-40.243a1.9,1.9,0,0,1,1.9-1.9h7.618a1.9,1.9,0,0,1,1.9,1.9v40.243h2.031a1.9,1.9,0,0,1,0,3.809Zm17.266-32.626a5.677,5.677,0,0,1,.069-.693l-5.637-2.818a5.7,5.7,0,1,1,1.759-4.107,5.493,5.493,0,0,1-.07.692l5.637,2.818a5.612,5.612,0,0,1,6.4-1.033l7.647-7.646a5.65,5.65,0,0,1-.573-2.448,5.706,5.706,0,0,1,8.876-4.752l6.644-4.982a5.63,5.63,0,0,1-.285-1.692,5.724,5.724,0,1,1,2.551,4.752l-6.644,4.981a5.642,5.642,0,0,1,.285,1.692,5.719,5.719,0,0,1-5.713,5.713,5.636,5.636,0,0,1-2.447-.573l-7.647,7.647a5.651,5.651,0,0,1,.573,2.448,5.713,5.713,0,0,1-11.425,0Z"/>
  </g>
</svg>
