<svg xmlns="http://www.w3.org/2000/svg" width="300" height="300.088" viewBox="0 0 370 370.088">
  <defs>
    <style>
      .cls-1 {
        fill: #49af46;
      }

      .cls-2 {
        fill: #49b846;
      }

      .cls-3, .cls-4, .cls-5 {
        fill: #fff;
      }

      .cls-3 {
        font-size: 16px;
        font-family: Poppins-Regular, Poppins;
      }

      .cls-4 {
        font-size: 24px;
        font-family: Poppins-Bold, Poppins;
        font-weight: 700;
      }
    </style>
  </defs>
  <g id="Seo_Optimize" data-name="Seo Optimize" transform="translate(-1249 -2855)">
    <rect id="bg" class="cls-1" width="370" height="370" transform="translate(1249 2855)"/>
    <path id="shape" class="cls-2" d="M1249.08,3100.557s15.007-66.793,51.8-54.34,43.02,57.737,121.7,13.585,95.662-58.3,124.531-23.774S1619,3001.5,1619,3001.5v223.589H1249.08Z"/>
    <text id="Accessbility_on_any_device_SEO_friendly_website_content." data-name="Accessbility on any device, SEO friendly website content." class="cls-3" transform="translate(1283 3076.84)"><tspan x="26.728" y="17">Accessbility on any device, SEO </tspan><tspan x="53.56" y="41">friendly website content.</tspan></text>
    <text id="SEO_Optimize-2" data-name="SEO Optimize" class="cls-4" transform="translate(1434 3048)"><tspan x="-81.432" y="0">SEO Optimize</tspan></text>
    <path id="icon" class="cls-5" d="M1403.9,2999a1.9,1.9,0,1,1,0-3.809h2.031v-21.2a1.9,1.9,0,0,1,1.9-1.9h7.618a1.9,1.9,0,0,1,1.9,1.9v21.2h3.809v-13.584a1.9,1.9,0,0,1,1.9-1.9h7.617a1.9,1.9,0,0,1,1.9,1.9v13.584h3.808v-28.817a1.9,1.9,0,0,1,1.9-1.9h7.618a1.9,1.9,0,0,1,1.9,1.9v28.817h3.809v-40.243a1.9,1.9,0,0,1,1.9-1.9h7.618a1.9,1.9,0,0,1,1.9,1.9v40.243h2.031a1.9,1.9,0,0,1,0,3.809Zm17.266-32.626a5.677,5.677,0,0,1,.069-.693l-5.637-2.818a5.7,5.7,0,1,1,1.759-4.107,5.493,5.493,0,0,1-.07.692l5.637,2.818a5.612,5.612,0,0,1,6.4-1.033l7.647-7.646a5.65,5.65,0,0,1-.573-2.448,5.706,5.706,0,0,1,8.876-4.752l6.644-4.982a5.63,5.63,0,0,1-.285-1.692,5.724,5.724,0,1,1,2.551,4.752l-6.644,4.981a5.642,5.642,0,0,1,.285,1.692,5.719,5.719,0,0,1-5.713,5.713,5.636,5.636,0,0,1-2.447-.573l-7.647,7.647a5.651,5.651,0,0,1,.573,2.448,5.713,5.713,0,0,1-11.425,0Z" transform="translate(0 3)"/>
  </g>
</svg>
