<svg xmlns="http://www.w3.org/2000/svg" width="300" height="300.088" viewBox="0 0 370 370.088">
  <defs>
    <style>
      .cls-1 {
        fill: #ff6331;
      }

      .cls-2 {
        fill: #ff5823;
      }

      .cls-3, .cls-4, .cls-5 {
        fill: #fff;
      }

      .cls-3 {
        font-size: 16px;
        font-family: Poppins-Regular, Poppins;
      }

      .cls-4 {
        font-size: 24px;
        font-family: Poppins-Bold, Poppins;
        font-weight: 700;
      }
    </style>
  </defs>
  <g id="UX_Design" data-name="UX Design" transform="translate(-449 -2855)">
    <rect id="bg_orange" class="cls-1" width="370" height="370" transform="translate(449 2855)"/>
    <path id="Shape" class="cls-2" d="M449,3100.557s15.007-66.793,51.8-54.34,43.02,57.737,121.7,13.585,95.662-58.3,124.531-23.774,71.888-34.528,71.888-34.528v223.589H449Z"/>
    <text id="User_Experience_Design_following_Design_Principles_via_Adobe_xD_Figma." data-name="User Experience Design following Design Principles via Adobe xD &amp; Figma." class="cls-3" transform="translate(483 3079.84)"><tspan x="20.768" y="17">User Experience Design following </tspan><tspan x="21.44" y="41">Design Principles via Adobe xD &amp; </tspan><tspan x="124.264" y="65">Figma.</tspan></text>
    <text id="UX_Design-2" data-name="UX Design" class="cls-4" transform="translate(634 3048)"><tspan x="-62.172" y="0">UX Design</tspan></text>
    <path id="icon" class="cls-5" d="M660.989,2999H588.011v-46.615h42.336l15.233-18.375h15.408V2999Zm-26.882-18.669h0l3.489,6.324h4.891l-5.935-10.758,5.935-10.758H637.6l-3.49,6.325-3.49-6.325h-4.891l5.936,10.758-5.936,10.758h4.891l3.489-6.324Zm-28.479-15.118v13.411a7.911,7.911,0,1,0,15.821,0v-13.411h-4.276v13.411a3.635,3.635,0,1,1-7.269,0v-13.411Zm22.718-17.132H588.011v-14.072h52l-11.666,14.072h0Zm-13.066-9.271v4.331h4.28v-4.331Zm-9.19,0v4.331h4.28v-4.331Zm-9.19,0v4.331h4.28v-4.331Z" transform="translate(9)"/>
  </g>
</svg>
