<svg xmlns="http://www.w3.org/2000/svg" xmlns:xlink="http://www.w3.org/1999/xlink" width="375" height="375" viewBox="0 0 475 475">
  <defs>
    <style>
      .cls-1 {
        fill: #ec407a;
      }

      .cls-2 {
        fill: #f5276c;
      }

      .cls-3, .cls-4, .cls-5 {
        fill: #fff;
      }

      .cls-3 {
        font-size: 16px;
        font-family: Poppins-Regular, Poppins;
      }

      .cls-4 {
        font-size: 24px;
        font-family: Poppins-Bold, Poppins;
        font-weight: 700;
      }

      .cls-6 {
        filter: url(#bg_red);
      }
    </style>
    <filter id="bg_red" x="0" y="0" width="475" height="475" filterUnits="userSpaceOnUse">
      <feOffset dy="3" input="SourceAlpha"/>
      <feGaussianBlur stdDeviation="17.5" result="blur"/>
      <feFlood flood-color="#ec407a" flood-opacity="0.349"/>
      <feComposite operator="in" in2="blur"/>
      <feComposite in="SourceGraphic"/>
    </filter>
  </defs>
  <g id="Web_Development" data-name="Web Development" transform="translate(-1196.5 -2405.5)">
    <g class="cls-6" transform="matrix(1, 0, 0, 1, 1196.5, 2405.5)">
      <rect id="bg_red-2" data-name="bg_red" class="cls-1" width="370" height="370" transform="translate(52.5 49.5)"/>
    </g>
    <path id="shape" class="cls-2" d="M1249.08,2700.557s15.007-66.794,51.8-54.34,43.02,57.737,121.7,13.585,95.662-58.3,124.531-23.774S1619,2601.5,1619,2601.5v223.59H1249.08Z"/>
    <text id="Lipsum_as_it_is_sometimes_known_is_dummy_text_used_in_laying_out_print_graphic_or_web_designs." data-name="Lipsum as it is sometimes known
is dummy text used in laying out print,
 graphic or web designs." class="cls-3" transform="translate(1283 2670.84)"><tspan x="20.552" y="17">Lipsum as it is sometimes known</tspan><tspan x="21.632" y="41">is dummy text used in laying out </tspan><tspan x="131.024" y="65">print,</tspan></text>
    <text id="Web_Development-2" data-name="Web Development" class="cls-4" transform="translate(1434 2649)"><tspan x="-114.12" y="0">Web Development</tspan></text>
    <path id="icon" class="cls-5" d="M1471.684,2599h-74.368a2.247,2.247,0,0,1-2.315-2.167v-41.167h79v41.167A2.247,2.247,0,0,1,1471.684,2599Zm-23.3-28.166a2.377,2.377,0,0,0-1.636.635,2.068,2.068,0,0,0,0,3.063l7.621,7.134-7.621,7.136a2.067,2.067,0,0,0,0,3.063,2.425,2.425,0,0,0,3.272,0l9.257-8.666a2.069,2.069,0,0,0,0-3.064l-9.257-8.666A2.377,2.377,0,0,0,1448.386,2570.833Zm-9.252,0a2.339,2.339,0,0,0-2.076,1.2l-9.257,17.333a2.032,2.032,0,0,0-.14,1.614,2.195,2.195,0,0,0,1.175,1.294,2.439,2.439,0,0,0,1.033.229,2.329,2.329,0,0,0,2.073-1.2l9.257-17.334a2.029,2.029,0,0,0,.14-1.614,2.191,2.191,0,0,0-1.175-1.294A2.449,2.449,0,0,0,1439.134,2570.835Zm-18.521,0a2.38,2.38,0,0,0-1.636.635l-9.257,8.666a2.071,2.071,0,0,0,0,3.064l9.257,8.666a2.426,2.426,0,0,0,3.273,0,2.069,2.069,0,0,0,0-3.063l-7.621-7.136,7.621-7.134a2.07,2.07,0,0,0,0-3.063A2.381,2.381,0,0,0,1420.613,2570.833Zm-13.885-8.667a2.171,2.171,0,1,0,0,4.333h55.544a2.171,2.171,0,1,0,0-4.333ZM1474,2551.333h-79v-15.167a2.247,2.247,0,0,1,2.315-2.167h74.368a2.247,2.247,0,0,1,2.315,2.167v15.166ZM1462.27,2540.5a2.174,2.174,0,1,0,2.31,2.17A2.245,2.245,0,0,0,1462.27,2540.5Zm-9.259,0a2.174,2.174,0,1,0,2.309,2.17A2.246,2.246,0,0,0,1453.01,2540.5Zm-9.25,0a2.174,2.174,0,1,0,2.309,2.17A2.246,2.246,0,0,0,1443.76,2540.5Zm-37.032,0a2.171,2.171,0,1,0,0,4.333h23.144a2.171,2.171,0,1,0,0-4.333Z"/>
  </g>
</svg>
