<svg xmlns="http://www.w3.org/2000/svg" xmlns:xlink="http://www.w3.org/1999/xlink" width="375" height="375" viewBox="0 0 475 475">
  <defs>
    <style>
      .cls-1 {
        fill: #8540ff;
      }

      .cls-2 {
        fill: #803afb;
      }

      .cls-3, .cls-4, .cls-5 {
        fill: #fff;
      }

      .cls-3 {
        font-size: 16px;
        font-family: Poppins-Regular, Poppins;
      }

      .cls-4 {
        font-size: 24px;
        font-family: Poppins-Bold, Poppins;
        font-weight: 700;
      }

      .cls-6 {
        filter: url(#bg);
      }
    </style>
    <filter id="bg" x="0" y="0" width="475" height="475" filterUnits="userSpaceOnUse">
      <feOffset input="SourceAlpha"/>
      <feGaussianBlur stdDeviation="17.5" result="blur"/>
      <feFlood flood-color="#760dff" flood-opacity="0.349"/>
      <feComposite operator="in" in2="blur"/>
      <feComposite in="SourceGraphic"/>
    </filter>
  </defs>
  <g id="Web_Design" data-name="Web Design" transform="translate(-396.5 -2402.5)">
    <g class="cls-6" transform="matrix(1, 0, 0, 1, 396.5, 2402.5)">
      <rect id="bg-2" data-name="bg" class="cls-1" width="370" height="370" transform="translate(52.5 52.5)"/>
    </g>
    <path id="Shape" class="cls-2" d="M449,2700.557s15.007-66.794,51.8-54.34,43.02,57.737,121.7,13.585,95.662-58.3,124.531-23.774,71.888-34.53,71.888-34.53v223.59H449Z"/>
    <text id="Lipsum_as_it_is_sometimes_known_is_dummy_text_used_in_laying_out_print_graphic_or_web_designs." data-name="Lipsum as it is sometimes known
is dummy text used in laying out print,
 graphic or web designs." class="cls-3" transform="translate(483 2670.84)"><tspan x="20.552" y="17">Lipsum as it is sometimes known</tspan><tspan x="21.632" y="41">is dummy text used in laying out </tspan><tspan x="131.024" y="65">print,</tspan></text>
    <text id="Web_Design-2" data-name="Web Design" class="cls-4" transform="translate(634 2649)"><tspan x="-73.296" y="0">Web Design</tspan></text>
    <path id="icon" class="cls-5" d="M614.281,2598.986a2.03,2.03,0,0,1,0-4.061h6.631l1.348-4.061h24.48l1.348,4.061h6.631a2.03,2.03,0,0,1,0,4.061Zm-8.222-12.182a6.086,6.086,0,0,1-6.066-6.091v-2.03h69.016v2.03a6.2,6.2,0,0,1-6.2,6.091Zm62.949-12.181H656.741v-6.091a2.028,2.028,0,0,0-2.021-2.03H651.6a18.2,18.2,0,0,0-.719-1.74l2.21-2.22a2.04,2.04,0,0,0,0-2.871l-5.719-5.742a2.015,2.015,0,0,0-2.859,0l-2.211,2.22a18.518,18.518,0,0,0-1.732-.724v-3.136a2.029,2.029,0,0,0-2.022-2.03h-8.087a2.028,2.028,0,0,0-2.022,2.03v3.136a18.5,18.5,0,0,0-1.732.724l-2.211-2.22a2.013,2.013,0,0,0-2.859,0l-5.719,5.742a2.04,2.04,0,0,0,0,2.871l2.21,2.22a18.325,18.325,0,0,0-.719,1.74h-3.124a2.029,2.029,0,0,0-2.022,2.03v6.091H599.992V2540.1a6.085,6.085,0,0,1,6.066-6.09h56.749a6.219,6.219,0,0,1,4.355,1.785,5.982,5.982,0,0,1,1.846,4.3v34.518h0ZM648.65,2548.23a6.07,6.07,0,1,0,6.07-6.09A6.087,6.087,0,0,0,648.65,2548.23Zm-4.307,26.391a10.113,10.113,0,1,0-19.687,0H616.3v-4.061H618.9a2.024,2.024,0,0,0,1.958-1.523,14.019,14.019,0,0,1,1.5-3.619,2.039,2.039,0,0,0-.311-2.467l-1.84-1.848,2.859-2.871,1.84,1.848a2.008,2.008,0,0,0,2.459.312,13.861,13.861,0,0,1,3.6-1.5,2.031,2.031,0,0,0,1.516-1.968v-2.6h4.044v2.6a2.032,2.032,0,0,0,1.516,1.968,13.854,13.854,0,0,1,3.6,1.5,2.007,2.007,0,0,0,2.459-.312l1.84-1.848,2.859,2.871-1.839,1.848a2.039,2.039,0,0,0-.311,2.467,13.984,13.984,0,0,1,1.5,3.619,2.026,2.026,0,0,0,1.959,1.523H652.7v4.061Zm-15.517,0a6.067,6.067,0,1,1,11.347,0Z"/>
  </g>
</svg>
