<svg xmlns="http://www.w3.org/2000/svg" width="45" height="45" viewBox="0 0 45 45">
  <defs>
    <style>
      .cls-1 {
        fill: #0abead;
      }
    </style>
  </defs>
  <path id="linkedin_logo" class="cls-1" d="M-1967.5-1213a22.353,22.353,0,0,1-15.91-6.59,22.353,22.353,0,0,1-6.59-15.91,22.353,22.353,0,0,1,6.59-15.91,22.353,22.353,0,0,1,15.91-6.59,22.353,22.353,0,0,1,15.91,6.59,22.353,22.353,0,0,1,6.59,15.91,22.353,22.353,0,0,1-6.59,15.91A22.353,22.353,0,0,1-1967.5-1213Zm5.738-23.4a2.441,2.441,0,0,1,2.117.988,5.123,5.123,0,0,1,.706,2.963V-1223h5.229v-10.409a8.3,8.3,0,0,0-1.411-5.254,5.135,5.135,0,0,0-4.234-1.751,6.034,6.034,0,0,0-5.461,3.1h-.067V-1240h-5.246v17h5.246v-9.695a4.007,4.007,0,0,1,.879-2.657A2.813,2.813,0,0,1-1961.762-1236.4Zm-18.03-3.6v17h5.246v-17Zm2.657-8.085a3.181,3.181,0,0,0-2.175.747,2.46,2.46,0,0,0-.847,1.926,2.552,2.552,0,0,0,.847,1.934,3.079,3.079,0,0,0,2.175.788,3.127,3.127,0,0,0,2.182-.764,2.539,2.539,0,0,0,.839-1.958,2.471,2.471,0,0,0-.839-1.926A3.172,3.172,0,0,0-1977.135-1248.085Z" transform="translate(1990 1258)"/>
</svg>
